<svg xmlns="http://www.w3.org/2000/svg" width="1024" height="500" viewBox="0 0 1024 500">

  <defs>
    <linearGradient id="bg" x1="0%" y1="0%" x2="100%" y2="100%">
      <stop offset="0%" stop-color="#1e1e1e"/>
      <stop offset="100%" stop-color="#2a2620"/>
    </linearGradient>
  </defs>
  <rect width="1024" height="500" fill="url(#bg)"/>

<path d="M325.00,250.00 L324.91,244.71 L324.63,239.43 L324.16,234.13 L323.50,228.84 L322.65,223.54 L321.60,218.23 L320.34,212.92 L318.88,207.60 L317.20,202.27 L315.30,196.94 L313.16,191.60 L310.78,186.26 L308.15,180.92 L305.24,175.59 L302.05,170.26 L298.56,164.96 L294.76,159.68 L290.62,154.43 L286.12,149.24 L281.25,144.12 L275.99,139.09 L270.30,134.16 L264.17,129.38 L257.57,124.77 L250.48,120.37 L242.87,116.23 L234.72,112.40 L226.01,108.94 L216.74,105.92 L206.88,103.43 L196.45,101.54 L185.44,100.36 L173.90,100.00 L161.85,100.58 L149.36,102.21 L136.53,105.02 L123.46,109.13 L110.32,114.66 L97.27,121.71 L84.54,130.34 L72.37,140.61 L61.02,152.48 L50.78,165.92 L41.92,180.79 L34.71,196.90 L29.38,214.02 L26.10,231.83 L25.00,250.00 L26.10,268.17 L29.38,285.98 L34.71,303.10 L41.92,319.21 L50.78,334.08 L61.02,347.52 L72.37,359.39 L84.54,369.66 L97.27,378.29 L110.32,385.34 L123.46,390.87 L136.53,394.98 L149.36,397.79 L161.85,399.42 L173.90,400.00 L185.44,399.64 L196.45,398.46 L206.88,396.57 L216.74,394.08 L226.01,391.06 L234.72,387.60 L242.87,383.77 L250.48,379.63 L257.57,375.23 L264.17,370.62 L270.30,365.84 L275.99,360.91 L281.25,355.88 L286.12,350.76 L290.62,345.57 L294.76,340.32 L298.56,335.04 L302.05,329.74 L305.24,324.41 L308.15,319.08 L310.78,313.74 L313.16,308.40 L315.30,303.06 L317.20,297.73 L318.88,292.40 L320.34,287.08 L321.60,281.77 L322.65,276.46 L323.50,271.16 L324.16,265.87 L324.63,260.57 L324.91,255.29 Z" fill="#1E1E1E" stroke="#FFD479" stroke-width="3"/>
<path d="M288.30,250.00 L288.22,246.20 L287.96,242.41 L287.52,238.62 L286.91,234.84 L286.12,231.08 L285.15,227.34 L284.00,223.63 L282.67,219.95 L281.15,216.30 L279.44,212.69 L277.54,209.14 L275.45,205.64 L273.15,202.20 L270.65,198.84 L267.94,195.56 L265.02,192.37 L261.89,189.30 L258.54,186.34 L254.97,183.52 L251.17,180.85 L247.16,178.35 L242.92,176.04 L238.45,173.93 L233.77,172.06 L228.87,170.45 L223.76,169.11 L218.46,168.08 L212.97,167.39 L207.32,167.07 L201.52,167.13 L195.60,167.62 L189.59,168.55 L183.52,169.96 L177.45,171.87 L171.40,174.30 L165.44,177.27 L159.62,180.78 L153.99,184.85 L148.64,189.45 L143.60,194.59 L138.97,200.24 L134.79,206.36 L131.14,212.92 L128.06,219.85 L125.61,227.10 L123.83,234.59 L122.75,242.25 L122.39,250.00 L122.75,257.75 L123.83,265.41 L125.61,272.90 L128.06,280.15 L131.14,287.08 L134.79,293.64 L138.97,299.76 L143.60,305.41 L148.64,310.55 L153.99,315.15 L159.62,319.22 L165.44,322.73 L171.40,325.70 L177.45,328.13 L183.52,330.04 L189.59,331.45 L195.60,332.38 L201.52,332.87 L207.32,332.93 L212.97,332.61 L218.46,331.92 L223.76,330.89 L228.87,329.55 L233.77,327.94 L238.45,326.07 L242.92,323.96 L247.16,321.65 L251.17,319.15 L254.97,316.48 L258.54,313.66 L261.89,310.70 L265.02,307.63 L267.94,304.44 L270.65,301.16 L273.15,297.80 L275.45,294.36 L277.54,290.86 L279.44,287.31 L281.15,283.70 L282.67,280.05 L284.00,276.37 L285.15,272.66 L286.12,268.92 L286.91,265.16 L287.52,261.38 L287.96,257.59 L288.22,253.80 Z" fill="#101010" stroke="#FFD47999" stroke-width="2"/>
<path d="M323.60,233.22 L323.67,232.13 L323.68,231.03 L323.62,229.93 L323.50,228.84 L323.31,227.75 L323.06,226.68 L322.74,225.62 L322.36,224.58 L321.92,223.56 L321.42,222.57 L320.85,221.61 L320.23,220.67 L319.55,219.78 L318.81,218.92 L318.01,218.11 L317.17,217.34 L316.27,216.62 L315.33,215.96 L314.34,215.35 L313.30,214.80 L312.23,214.32 L311.13,213.90 L309.99,213.56 L308.82,213.28 L307.63,213.08 L306.43,212.96 L305.21,212.91 L303.98,212.95 L302.75,213.07 L301.52,213.27 L300.30,213.55 L299.09,213.93 L297.91,214.38 L296.75,214.92 L295.63,215.54 L294.54,216.24 L293.50,217.02 L292.52,217.87 L291.59,218.79 L290.73,219.79 L289.93,220.84 L289.21,221.96 L288.57,223.12 L288.02,224.33 L287.55,225.58 L287.17,226.87 L286.89,228.18 L286.70,229.50 L286.61,230.84 L286.61,232.18 L286.71,233.52 L286.91,234.84 L287.20,236.15 L287.58,237.43 L288.06,238.67 L288.62,239.87 L289.26,241.03 L289.98,242.13 L290.77,243.18 L291.63,244.16 L292.56,245.08 L293.54,245.92 L294.57,246.69 L295.65,247.39 L296.76,248.00 L297.91,248.53 L299.09,248.98 L300.28,249.35 L301.49,249.64 L302.70,249.84 L303.92,249.96 L305.14,250.00 L306.35,249.96 L307.55,249.84 L308.72,249.65 L309.88,249.38 L311.01,249.05 L312.11,248.64 L313.17,248.17 L314.20,247.64 L315.19,247.04 L316.13,246.39 L317.03,245.69 L317.88,244.94 L318.67,244.13 L319.42,243.29 L320.11,242.41 L320.74,241.49 L321.31,240.54 L321.82,239.55 L322.28,238.54 L322.67,237.51 L323.00,236.46 L323.26,235.39 L323.46,234.31 Z" fill="#FFD479" stroke="#FFD479" stroke-width="1"/>
<path d="M311.95,200.27 L312.24,199.11 L312.46,197.94 L312.61,196.76 L312.68,195.57 L312.69,194.38 L312.63,193.19 L312.50,192.00 L312.29,190.82 L312.02,189.66 L311.68,188.50 L311.26,187.37 L310.78,186.26 L310.23,185.18 L309.62,184.12 L308.94,183.10 L308.19,182.12 L307.38,181.19 L306.51,180.30 L305.58,179.46 L304.60,178.67 L303.56,177.95 L302.48,177.28 L301.34,176.68 L300.16,176.16 L298.95,175.70 L297.69,175.33 L296.41,175.03 L295.10,174.82 L293.77,174.69 L292.43,174.65 L291.08,174.70 L289.72,174.84 L288.37,175.08 L287.03,175.41 L285.71,175.83 L284.41,176.34 L283.14,176.95 L281.91,177.65 L280.73,178.44 L279.60,179.31 L278.53,180.27 L277.53,181.30 L276.60,182.41 L275.75,183.58 L274.98,184.82 L274.30,186.11 L273.72,187.45 L273.23,188.83 L272.85,190.24 L272.56,191.68 L272.39,193.14 L272.32,194.60 L272.35,196.07 L272.50,197.52 L272.74,198.96 L273.09,200.38 L273.54,201.76 L274.08,203.10 L274.72,204.40 L275.45,205.64 L276.25,206.82 L277.14,207.93 L278.09,208.98 L279.11,209.95 L280.19,210.84 L281.33,211.65 L282.50,212.38 L283.72,213.02 L284.97,213.57 L286.24,214.03 L287.54,214.41 L288.85,214.69 L290.16,214.89 L291.48,215.00 L292.79,215.03 L294.09,214.97 L295.37,214.82 L296.64,214.60 L297.88,214.30 L299.09,213.93 L300.27,213.48 L301.41,212.96 L302.51,212.37 L303.57,211.73 L304.58,211.02 L305.54,210.26 L306.45,209.44 L307.31,208.57 L308.10,207.66 L308.84,206.70 L309.52,205.71 L310.14,204.68 L310.69,203.61 L311.18,202.52 L311.60,201.41 Z" fill="#FFD479" stroke="#FFD479" stroke-width="1"/>
<path d="M286.29,170.35 L286.80,169.05 L287.23,167.72 L287.59,166.37 L287.87,165.01 L288.06,163.63 L288.18,162.24 L288.21,160.84 L288.16,159.44 L288.03,158.05 L287.82,156.66 L287.53,155.28 L287.15,153.92 L286.69,152.58 L286.15,151.26 L285.53,149.97 L284.83,148.71 L284.05,147.49 L283.19,146.32 L282.26,145.20 L281.25,144.12 L280.18,143.11 L279.03,142.15 L277.82,141.27 L276.55,140.46 L275.22,139.72 L273.83,139.07 L272.40,138.50 L270.92,138.03 L269.40,137.64 L267.85,137.36 L266.27,137.18 L264.67,137.11 L263.06,137.14 L261.44,137.28 L259.83,137.54 L258.22,137.91 L256.64,138.39 L255.08,138.98 L253.55,139.69 L252.08,140.51 L250.65,141.43 L249.29,142.46 L248.00,143.59 L246.79,144.81 L245.67,146.13 L244.64,147.52 L243.72,148.99 L242.90,150.53 L242.19,152.13 L241.61,153.77 L241.14,155.46 L240.80,157.17 L240.58,158.91 L240.50,160.65 L240.54,162.40 L240.71,164.13 L241.00,165.84 L241.42,167.52 L241.95,169.16 L242.60,170.75 L243.36,172.29 L244.22,173.75 L245.17,175.15 L246.22,176.47 L247.35,177.70 L248.56,178.85 L249.84,179.90 L251.17,180.85 L252.56,181.70 L254.00,182.45 L255.47,183.10 L256.97,183.65 L258.49,184.09 L260.02,184.42 L261.57,184.66 L263.11,184.79 L264.64,184.82 L266.17,184.75 L267.68,184.59 L269.16,184.33 L270.61,183.98 L272.03,183.55 L273.41,183.03 L274.75,182.43 L276.04,181.76 L277.28,181.01 L278.47,180.19 L279.60,179.31 L280.67,178.37 L281.68,177.36 L282.62,176.31 L283.50,175.20 L284.31,174.04 L285.04,172.85 L285.70,171.61 Z" fill="#FFD479" stroke="#FFD479" stroke-width="1"/>
<path d="M242.90,150.53 L243.61,148.94 L244.24,147.32 L244.76,145.66 L245.20,143.98 L245.53,142.27 L245.76,140.55 L245.90,138.81 L245.93,137.06 L245.87,135.32 L245.70,133.57 L245.43,131.84 L245.06,130.11 L244.59,128.40 L244.01,126.72 L243.33,125.07 L242.55,123.45 L241.68,121.87 L240.70,120.34 L239.63,118.86 L238.46,117.44 L237.19,116.08 L235.84,114.80 L234.40,113.59 L232.87,112.47 L231.27,111.44 L229.58,110.50 L227.83,109.67 L226.01,108.94 L224.14,108.33 L222.21,107.84 L220.24,107.48 L218.23,107.24 L216.19,107.14 L214.13,107.18 L212.07,107.37 L210.00,107.69 L207.95,108.17 L205.92,108.78 L203.93,109.55 L201.98,110.46 L200.09,111.52 L198.27,112.71 L196.53,114.04 L194.89,115.51 L193.35,117.09 L191.92,118.79 L190.62,120.60 L189.45,122.50 L188.43,124.49 L187.55,126.55 L186.82,128.67 L186.26,130.85 L185.86,133.06 L185.63,135.29 L185.56,137.52 L185.65,139.76 L185.92,141.97 L186.34,144.15 L186.92,146.29 L187.65,148.37 L188.52,150.38 L189.53,152.31 L190.68,154.15 L191.94,155.90 L193.32,157.54 L194.80,159.07 L196.37,160.48 L198.02,161.77 L199.74,162.93 L201.53,163.96 L203.36,164.86 L205.24,165.63 L207.15,166.27 L209.08,166.78 L211.02,167.15 L212.97,167.39 L214.91,167.51 L216.84,167.50 L218.76,167.37 L220.64,167.12 L222.49,166.76 L224.30,166.28 L226.06,165.70 L227.78,165.02 L229.43,164.24 L231.03,163.37 L232.56,162.40 L234.03,161.36 L235.42,160.23 L236.74,159.03 L237.97,157.76 L239.13,156.43 L240.20,155.03 L241.19,153.58 L242.09,152.08 Z" fill="#FFD479" stroke="#FFD479" stroke-width="1"/>
<path d="M183.09,157.19 L183.84,155.10 L184.47,152.97 L184.98,150.81 L185.36,148.63 L185.62,146.42 L185.76,144.21 L185.77,141.98 L185.65,139.76 L185.41,137.53 L185.04,135.32 L184.54,133.13 L183.92,130.96 L183.16,128.82 L182.28,126.71 L181.27,124.65 L180.14,122.64 L178.87,120.68 L177.49,118.80 L175.99,116.98 L174.36,115.25 L172.62,113.61 L170.77,112.06 L168.81,110.62 L166.74,109.29 L164.58,108.08 L162.32,107.00 L159.98,106.07 L157.55,105.27 L155.06,104.63 L152.51,104.16 L149.90,103.85 L147.26,103.71 L144.58,103.76 L141.90,103.99 L139.21,104.41 L136.53,105.02 L133.88,105.82 L131.27,106.82 L128.72,108.01 L126.24,109.40 L123.86,110.97 L121.58,112.72 L119.42,114.64 L117.40,116.74 L115.53,118.98 L113.83,121.37 L112.30,123.89 L110.97,126.53 L109.83,129.26 L108.91,132.08 L108.20,134.96 L107.71,137.88 L107.44,140.84 L107.39,143.80 L107.57,146.75 L107.97,149.67 L108.58,152.54 L109.41,155.34 L110.43,158.07 L111.65,160.69 L113.05,163.21 L114.62,165.60 L116.34,167.85 L118.21,169.96 L120.21,171.91 L122.33,173.70 L124.55,175.33 L126.85,176.78 L129.23,178.06 L131.67,179.16 L134.16,180.08 L136.67,180.83 L139.21,181.41 L141.75,181.81 L144.29,182.04 L146.82,182.10 L149.32,182.01 L151.79,181.76 L154.22,181.35 L156.59,180.81 L158.91,180.12 L161.16,179.29 L163.34,178.34 L165.44,177.27 L167.46,176.08 L169.39,174.79 L171.23,173.39 L172.97,171.89 L174.61,170.31 L176.15,168.64 L177.59,166.89 L178.91,165.07 L180.13,163.18 L181.23,161.24 L182.22,159.24 Z" fill="#FFD479" stroke="#FFD479" stroke-width="1"/>
<path d="M130.78,209.63 L131.10,207.01 L131.27,204.37 L131.29,201.73 L131.16,199.09 L130.89,196.45 L130.47,193.83 L129.90,191.23 L129.19,188.66 L128.32,186.12 L127.31,183.62 L126.15,181.17 L124.85,178.78 L123.40,176.46 L121.81,174.21 L120.08,172.04 L118.21,169.96 L116.21,167.98 L114.07,166.10 L111.81,164.35 L109.42,162.72 L106.91,161.22 L104.29,159.88 L101.56,158.68 L98.74,157.65 L95.82,156.80 L92.83,156.12 L89.77,155.64 L86.65,155.36 L83.48,155.28 L80.28,155.42 L77.07,155.78 L73.85,156.37 L70.66,157.18 L67.49,158.23 L64.38,159.51 L61.34,161.02 L58.39,162.76 L55.55,164.73 L52.84,166.92 L50.29,169.32 L47.90,171.92 L45.70,174.71 L43.70,177.67 L41.92,180.79 L40.38,184.05 L39.09,187.43 L38.06,190.90 L37.29,194.45 L36.80,198.05 L36.59,201.69 L36.66,205.32 L37.00,208.93 L37.62,212.50 L38.50,216.00 L39.65,219.41 L41.04,222.71 L42.67,225.88 L44.52,228.89 L46.58,231.75 L48.83,234.42 L51.25,236.91 L53.82,239.19 L56.52,241.26 L59.35,243.12 L62.27,244.75 L65.27,246.16 L68.32,247.35 L71.43,248.32 L74.55,249.06 L77.69,249.59 L80.83,249.90 L83.94,250.00 L87.02,249.90 L90.06,249.60 L93.04,249.12 L95.95,248.45 L98.79,247.61 L101.54,246.61 L104.20,245.44 L106.77,244.14 L109.22,242.69 L111.57,241.10 L113.80,239.40 L115.91,237.58 L117.89,235.66 L119.75,233.63 L121.47,231.52 L123.07,229.32 L124.52,227.05 L125.84,224.71 L127.02,222.31 L128.06,219.85 L128.96,217.35 L129.71,214.81 L130.32,212.23 Z" fill="#FFD479" stroke="#FFD479" stroke-width="1"/>
<path d="M130.78,290.37 L130.32,287.77 L129.71,285.19 L128.96,282.65 L128.06,280.15 L127.02,277.69 L125.84,275.29 L124.52,272.95 L123.07,270.68 L121.47,268.48 L119.75,266.37 L117.89,264.34 L115.91,262.42 L113.80,260.60 L111.57,258.90 L109.22,257.31 L106.77,255.86 L104.20,254.56 L101.54,253.39 L98.79,252.39 L95.95,251.55 L93.04,250.88 L90.06,250.40 L87.02,250.10 L83.94,250.00 L80.83,250.10 L77.69,250.41 L74.55,250.94 L71.43,251.68 L68.32,252.65 L65.27,253.84 L62.27,255.25 L59.35,256.88 L56.52,258.74 L53.82,260.81 L51.25,263.09 L48.83,265.58 L46.58,268.25 L44.52,271.11 L42.67,274.12 L41.04,277.29 L39.65,280.59 L38.50,284.00 L37.62,287.50 L37.00,291.07 L36.66,294.68 L36.59,298.31 L36.80,301.95 L37.29,305.55 L38.06,309.10 L39.09,312.57 L40.38,315.95 L41.92,319.21 L43.70,322.33 L45.70,325.29 L47.90,328.08 L50.29,330.68 L52.84,333.08 L55.55,335.27 L58.39,337.24 L61.34,338.98 L64.38,340.49 L67.49,341.77 L70.66,342.82 L73.85,343.63 L77.07,344.22 L80.28,344.58 L83.48,344.72 L86.65,344.64 L89.77,344.36 L92.83,343.88 L95.82,343.20 L98.74,342.35 L101.56,341.32 L104.29,340.12 L106.91,338.78 L109.42,337.28 L111.81,335.65 L114.07,333.90 L116.21,332.02 L118.21,330.04 L120.08,327.96 L121.81,325.79 L123.40,323.54 L124.85,321.22 L126.15,318.83 L127.31,316.38 L128.32,313.88 L129.19,311.34 L129.90,308.77 L130.47,306.17 L130.89,303.55 L131.16,300.91 L131.29,298.27 L131.27,295.63 L131.10,292.99 Z" fill="#FFD479" stroke="#FFD479" stroke-width="1"/>
<path d="M183.09,342.81 L182.22,340.76 L181.23,338.76 L180.13,336.82 L178.91,334.93 L177.59,333.11 L176.15,331.36 L174.61,329.69 L172.97,328.11 L171.23,326.61 L169.39,325.21 L167.46,323.92 L165.44,322.73 L163.34,321.66 L161.16,320.71 L158.91,319.88 L156.59,319.19 L154.22,318.65 L151.79,318.24 L149.32,317.99 L146.82,317.90 L144.29,317.96 L141.75,318.19 L139.21,318.59 L136.67,319.17 L134.16,319.92 L131.67,320.84 L129.23,321.94 L126.85,323.22 L124.55,324.67 L122.33,326.30 L120.21,328.09 L118.21,330.04 L116.34,332.15 L114.62,334.40 L113.05,336.79 L111.65,339.31 L110.43,341.93 L109.41,344.66 L108.58,347.46 L107.97,350.33 L107.57,353.25 L107.39,356.20 L107.44,359.16 L107.71,362.12 L108.20,365.04 L108.91,367.92 L109.83,370.74 L110.97,373.47 L112.30,376.11 L113.83,378.63 L115.53,381.02 L117.40,383.26 L119.42,385.36 L121.58,387.28 L123.86,389.03 L126.24,390.60 L128.72,391.99 L131.27,393.18 L133.88,394.18 L136.53,394.98 L139.21,395.59 L141.90,396.01 L144.58,396.24 L147.26,396.29 L149.90,396.15 L152.51,395.84 L155.06,395.37 L157.55,394.73 L159.98,393.93 L162.32,393.00 L164.58,391.92 L166.74,390.71 L168.81,389.38 L170.77,387.94 L172.62,386.39 L174.36,384.75 L175.99,383.02 L177.49,381.20 L178.87,379.32 L180.14,377.36 L181.27,375.35 L182.28,373.29 L183.16,371.18 L183.92,369.04 L184.54,366.87 L185.04,364.68 L185.41,362.47 L185.65,360.24 L185.77,358.02 L185.76,355.79 L185.62,353.58 L185.36,351.37 L184.98,349.19 L184.47,347.03 L183.84,344.90 Z" fill="#FFD479" stroke="#FFD479" stroke-width="1"/>
<path d="M242.90,349.47 L242.09,347.92 L241.19,346.42 L240.20,344.97 L239.13,343.57 L237.97,342.24 L236.74,340.97 L235.42,339.77 L234.03,338.64 L232.56,337.60 L231.03,336.63 L229.43,335.76 L227.78,334.98 L226.06,334.30 L224.30,333.72 L222.49,333.24 L220.64,332.88 L218.76,332.63 L216.84,332.50 L214.91,332.49 L212.97,332.61 L211.02,332.85 L209.08,333.22 L207.15,333.73 L205.24,334.37 L203.36,335.14 L201.53,336.04 L199.74,337.07 L198.02,338.23 L196.37,339.52 L194.80,340.93 L193.32,342.46 L191.94,344.10 L190.68,345.85 L189.53,347.69 L188.52,349.62 L187.65,351.63 L186.92,353.71 L186.34,355.85 L185.92,358.03 L185.65,360.24 L185.56,362.48 L185.63,364.71 L185.86,366.94 L186.26,369.15 L186.82,371.33 L187.55,373.45 L188.43,375.51 L189.45,377.50 L190.62,379.40 L191.92,381.21 L193.35,382.91 L194.89,384.49 L196.53,385.96 L198.27,387.29 L200.09,388.48 L201.98,389.54 L203.93,390.45 L205.92,391.22 L207.95,391.83 L210.00,392.31 L212.07,392.63 L214.13,392.82 L216.19,392.86 L218.23,392.76 L220.24,392.52 L222.21,392.16 L224.14,391.67 L226.01,391.06 L227.83,390.33 L229.58,389.50 L231.27,388.56 L232.87,387.53 L234.40,386.41 L235.84,385.20 L237.19,383.92 L238.46,382.56 L239.63,381.14 L240.70,379.66 L241.68,378.13 L242.55,376.55 L243.33,374.93 L244.01,373.28 L244.59,371.60 L245.06,369.89 L245.43,368.16 L245.70,366.43 L245.87,364.68 L245.93,362.94 L245.90,361.19 L245.76,359.45 L245.53,357.73 L245.20,356.02 L244.76,354.34 L244.24,352.68 L243.61,351.06 Z" fill="#FFD479" stroke="#FFD479" stroke-width="1"/>
<path d="M286.29,329.65 L285.70,328.39 L285.04,327.15 L284.31,325.96 L283.50,324.80 L282.62,323.69 L281.68,322.64 L280.67,321.63 L279.60,320.69 L278.47,319.81 L277.28,318.99 L276.04,318.24 L274.75,317.57 L273.41,316.97 L272.03,316.45 L270.61,316.02 L269.16,315.67 L267.68,315.41 L266.17,315.25 L264.64,315.18 L263.11,315.21 L261.57,315.34 L260.02,315.58 L258.49,315.91 L256.97,316.35 L255.47,316.90 L254.00,317.55 L252.56,318.30 L251.17,319.15 L249.84,320.10 L248.56,321.15 L247.35,322.30 L246.22,323.53 L245.17,324.85 L244.22,326.25 L243.36,327.71 L242.60,329.25 L241.95,330.84 L241.42,332.48 L241.00,334.16 L240.71,335.87 L240.54,337.60 L240.50,339.35 L240.58,341.09 L240.80,342.83 L241.14,344.54 L241.61,346.23 L242.19,347.87 L242.90,349.47 L243.72,351.01 L244.64,352.48 L245.67,353.87 L246.79,355.19 L248.00,356.41 L249.29,357.54 L250.65,358.57 L252.08,359.49 L253.55,360.31 L255.08,361.02 L256.64,361.61 L258.22,362.09 L259.83,362.46 L261.44,362.72 L263.06,362.86 L264.67,362.89 L266.27,362.82 L267.85,362.64 L269.40,362.36 L270.92,361.97 L272.40,361.50 L273.83,360.93 L275.22,360.28 L276.55,359.54 L277.82,358.73 L279.03,357.85 L280.18,356.89 L281.25,355.88 L282.26,354.80 L283.19,353.68 L284.05,352.51 L284.83,351.29 L285.53,350.03 L286.15,348.74 L286.69,347.42 L287.15,346.08 L287.53,344.72 L287.82,343.34 L288.03,341.95 L288.16,340.56 L288.21,339.16 L288.18,337.76 L288.06,336.37 L287.87,334.99 L287.59,333.63 L287.23,332.28 L286.80,330.95 Z" fill="#FFD479" stroke="#FFD479" stroke-width="1"/>
<path d="M311.95,299.73 L311.60,298.59 L311.18,297.48 L310.69,296.39 L310.14,295.32 L309.52,294.29 L308.84,293.30 L308.10,292.34 L307.31,291.43 L306.45,290.56 L305.54,289.74 L304.58,288.98 L303.57,288.27 L302.51,287.63 L301.41,287.04 L300.27,286.52 L299.09,286.07 L297.88,285.70 L296.64,285.40 L295.37,285.18 L294.09,285.03 L292.79,284.97 L291.48,285.00 L290.16,285.11 L288.85,285.31 L287.54,285.59 L286.24,285.97 L284.97,286.43 L283.72,286.98 L282.50,287.62 L281.33,288.35 L280.19,289.16 L279.11,290.05 L278.09,291.02 L277.14,292.07 L276.25,293.18 L275.45,294.36 L274.72,295.60 L274.08,296.90 L273.54,298.24 L273.09,299.62 L272.74,301.04 L272.50,302.48 L272.35,303.93 L272.32,305.40 L272.39,306.86 L272.56,308.32 L272.85,309.76 L273.23,311.17 L273.72,312.55 L274.30,313.89 L274.98,315.18 L275.75,316.42 L276.60,317.59 L277.53,318.70 L278.53,319.73 L279.60,320.69 L280.73,321.56 L281.91,322.35 L283.14,323.05 L284.41,323.66 L285.71,324.17 L287.03,324.59 L288.37,324.92 L289.72,325.16 L291.08,325.30 L292.43,325.35 L293.77,325.31 L295.10,325.18 L296.41,324.97 L297.69,324.67 L298.95,324.30 L300.16,323.84 L301.34,323.32 L302.48,322.72 L303.56,322.05 L304.60,321.33 L305.58,320.54 L306.51,319.70 L307.38,318.81 L308.19,317.88 L308.94,316.90 L309.62,315.88 L310.23,314.82 L310.78,313.74 L311.26,312.63 L311.68,311.50 L312.02,310.34 L312.29,309.18 L312.50,308.00 L312.63,306.81 L312.69,305.62 L312.68,304.43 L312.61,303.24 L312.46,302.06 L312.24,300.89 Z" fill="#FFD479" stroke="#FFD479" stroke-width="1"/>
<path d="M323.60,266.78 L323.46,265.69 L323.26,264.61 L323.00,263.54 L322.67,262.49 L322.28,261.46 L321.82,260.45 L321.31,259.46 L320.74,258.51 L320.11,257.59 L319.42,256.71 L318.67,255.87 L317.88,255.06 L317.03,254.31 L316.13,253.61 L315.19,252.96 L314.20,252.36 L313.17,251.83 L312.11,251.36 L311.01,250.95 L309.88,250.62 L308.72,250.35 L307.55,250.16 L306.35,250.04 L305.14,250.00 L303.92,250.04 L302.70,250.16 L301.49,250.36 L300.28,250.65 L299.09,251.02 L297.91,251.47 L296.76,252.00 L295.65,252.61 L294.57,253.31 L293.54,254.08 L292.56,254.92 L291.63,255.84 L290.77,256.82 L289.98,257.87 L289.26,258.97 L288.62,260.13 L288.06,261.33 L287.58,262.57 L287.20,263.85 L286.91,265.16 L286.71,266.48 L286.61,267.82 L286.61,269.16 L286.70,270.50 L286.89,271.82 L287.17,273.13 L287.55,274.42 L288.02,275.67 L288.57,276.88 L289.21,278.04 L289.93,279.16 L290.73,280.21 L291.59,281.21 L292.52,282.13 L293.50,282.98 L294.54,283.76 L295.63,284.46 L296.75,285.08 L297.91,285.62 L299.09,286.07 L300.30,286.45 L301.52,286.73 L302.75,286.93 L303.98,287.05 L305.21,287.09 L306.43,287.04 L307.63,286.92 L308.82,286.72 L309.99,286.44 L311.13,286.10 L312.23,285.68 L313.30,285.20 L314.34,284.65 L315.33,284.04 L316.27,283.38 L317.17,282.66 L318.01,281.89 L318.81,281.08 L319.55,280.22 L320.23,279.33 L320.85,278.39 L321.42,277.43 L321.92,276.44 L322.36,275.42 L322.74,274.38 L323.06,273.32 L323.31,272.25 L323.50,271.16 L323.62,270.07 L323.68,268.97 L323.67,267.87 Z" fill="#FFD479" stroke="#FFD479" stroke-width="1"/>
<circle cx="500" cy="250" r="150" fill="none" stroke="#FFD479" stroke-width="3"/>
<text x="646.0" y="255.0" font-family="sans-serif" font-size="14" fill="#8DD8FF" text-anchor="start">0°</text>
<text x="500.0" y="112.0" font-family="sans-serif" font-size="14" fill="#FFD479" text-anchor="middle">90°</text>
<text x="354.0" y="254.99999999999997" font-family="sans-serif" font-size="14" fill="#8DD8FF" text-anchor="end">180°</text>
<text x="500.0" y="400.0" font-family="sans-serif" font-size="14" fill="#FFD479" text-anchor="middle">270°</text>
<line x1="500" y1="250" x2="575.0" y2="120.0961894323342" stroke="#FFD479" stroke-width="3" stroke-linecap="round"/>
<circle cx="575.0" cy="120.0961894323342" r="9" fill="#FFD479"/>
<circle cx="500" cy="250" r="3" fill="#F0F0F0" opacity="0.6"/>
<line x1="690" y1="250" x2="970" y2="250" stroke="#FFD479" stroke-width="1.5" opacity="0.7"/>
<line x1="690" y1="150" x2="690" y2="350" stroke="#FFD479" stroke-width="1.5" opacity="0.7"/>
<polyline points="690.0,250.0 691.4,246.1 692.8,242.2 694.2,238.2 695.6,234.4 697.0,230.5 698.4,226.7 699.8,222.9 701.2,219.1 702.6,215.4 704.0,211.7 705.4,208.1 706.8,204.6 708.2,201.1 709.6,197.8 711.0,194.4 712.4,191.2 713.8,188.1 715.2,185.1 716.6,182.1 718.0,179.3 719.4,176.6 720.8,174.0 722.2,171.5 723.6,169.1 725.0,166.9 726.4,164.7 727.8,162.8 729.2,160.9 730.6,159.2 732.0,157.6 733.4,156.2 734.8,154.9 736.2,153.8 737.6,152.8 739.0,151.9 740.4,151.2 741.8,150.7 743.2,150.3 744.6,150.1 746.0,150.0 747.4,150.1 748.8,150.3 750.2,150.7 751.6,151.2 753.0,151.9 754.4,152.8 755.8,153.8 757.2,154.9 758.6,156.2 760.0,157.6 761.4,159.2 762.8,160.9 764.2,162.8 765.6,164.7 767.0,166.9 768.4,169.1 769.8,171.5 771.2,174.0 772.6,176.6 774.0,179.3 775.4,182.1 776.8,185.1 778.2,188.1 779.6,191.2 781.0,194.4 782.4,197.8 783.8,201.1 785.2,204.6 786.6,208.1 788.0,211.7 789.4,215.4 790.8,219.1 792.2,222.9 793.6,226.7 795.0,230.5 796.4,234.4 797.8,238.2 799.2,242.2 800.6,246.1 802.0,250.0 803.4,253.9 804.8,257.8 806.2,261.8 807.6,265.6 809.0,269.5 810.4,273.3 811.8,277.1 813.2,280.9 814.6,284.6 816.0,288.3 817.4,291.9 818.8,295.4 820.2,298.9 821.6,302.2 823.0,305.6 824.4,308.8 825.8,311.9 827.2,314.9 828.6,317.9 830.0,320.7 831.4,323.4 832.8,326.0 834.2,328.5 835.6,330.9 837.0,333.1 838.4,335.3 839.8,337.2 841.2,339.1 842.6,340.8 844.0,342.4 845.4,343.8 846.8,345.1 848.2,346.2 849.6,347.2 851.0,348.1 852.4,348.8 853.8,349.3 855.2,349.7 856.6,349.9 858.0,350.0 859.4,349.9 860.8,349.7 862.2,349.3 863.6,348.8 865.0,348.1 866.4,347.2 867.8,346.2 869.2,345.1 870.6,343.8 872.0,342.4 873.4,340.8 874.8,339.1 876.2,337.2 877.6,335.3 879.0,333.1 880.4,330.9 881.8,328.5 883.2,326.0 884.6,323.4 886.0,320.7 887.4,317.9 888.8,314.9 890.2,311.9 891.6,308.8 893.0,305.6 894.4,302.2 895.8,298.9 897.2,295.4 898.6,291.9 900.0,288.3 901.4,284.6 902.8,280.9 904.2,277.1 905.6,273.3 907.0,269.5 908.4,265.6 909.8,261.8 911.2,257.8 912.6,253.9 914.0,250.0 915.4,246.1 916.8,242.2 918.2,238.2 919.6,234.4 921.0,230.5 922.4,226.7 923.8,222.9 925.2,219.1 926.6,215.4 928.0,211.7 929.4,208.1 930.8,204.6 932.2,201.1 933.6,197.8 935.0,194.4 936.4,191.2 937.8,188.1 939.2,185.1 940.6,182.1 942.0,179.3 943.4,176.6 944.8,174.0 946.2,171.5 947.6,169.1 949.0,166.9 950.4,164.7 951.8,162.8 953.2,160.9 954.6,159.2 956.0,157.6 957.4,156.2 958.8,154.9 960.2,153.8 961.6,152.8 963.0,151.9 964.4,151.2 965.8,150.7 967.2,150.3 968.6,150.1 970.0,150.0" fill="none" stroke="#FFD479" stroke-width="1.5" opacity="0.4"/>
<polyline points="690.0,250.0 691.4,246.1 692.8,242.2 694.2,238.2 695.6,234.4 697.0,230.5 698.4,226.7 699.8,222.9 701.2,219.1 702.6,215.4 704.0,211.7 705.4,208.1 706.8,204.6 708.2,201.1 709.6,197.8 711.0,194.4 712.4,191.2 713.8,188.1 715.2,185.1 716.6,182.1 718.0,179.3 719.4,176.6 720.8,174.0 722.2,171.5 723.6,169.1 725.0,166.9 726.4,164.7" fill="none" stroke="#FFD479" stroke-width="2.5" stroke-linecap="round"/>
<circle cx="727.3333333333334" cy="163.39745962155615" r="5" fill="#FFD479"/>
<line x1="575.0" y1="120.0961894323342" x2="727.3333333333334" y2="163.39745962155615" stroke="#FFD479" stroke-width="1.5" opacity="0.5"/>
<text x="984" y="60" font-family="serif" font-size="44" font-weight="600" fill="#FFD479" text-anchor="end">Geometrie-Spielzeug</text>
<text x="984" y="92" font-family="sans-serif" font-size="18" fill="#F0F0F0" opacity="0.85" text-anchor="end">Mathematik zum Anfassen</text>
<text x="512" y="476" font-family="sans-serif" font-size="16" fill="#F0F0F0" opacity="0.6" text-anchor="middle">Steiner-Kette · Einheitskreis · Live-Formeln · Theorie integriert</text>
</svg>