<svg xmlns="http://www.w3.org/2000/svg" width="1024" height="1024" viewBox="0 0 1024 1024">
  <rect width="1024" height="1024" fill="#1E1E1E"/>
  <path d="M960.00,512.00 L959.72,496.21 L958.89,480.42 L957.49,464.61 L955.52,448.80 L952.97,432.97 L949.84,417.12 L946.10,401.25 L941.73,385.36 L936.72,369.45 L931.03,353.52 L924.65,337.58 L917.54,321.63 L909.66,305.68 L900.98,289.75 L891.46,273.85 L881.04,258.00 L869.67,242.23 L857.31,226.58 L843.89,211.08 L829.34,195.78 L813.62,180.74 L796.63,166.04 L778.32,151.75 L758.61,137.98 L737.42,124.84 L714.69,112.48 L690.36,101.04 L664.36,90.70 L636.66,81.69 L607.22,74.24 L576.06,68.60 L543.19,65.09 L508.70,64.01 L472.72,65.73 L435.43,70.59 L397.10,78.99 L358.08,91.27 L318.82,107.79 L279.86,128.84 L241.84,154.63 L205.48,185.27 L171.59,220.75 L141.00,260.88 L114.54,305.29 L93.01,353.42 L77.08,404.53 L67.30,457.73 L64.00,512.00 L67.30,566.27 L77.08,619.47 L93.01,670.58 L114.54,718.71 L141.00,763.12 L171.59,803.25 L205.48,838.73 L241.84,869.37 L279.86,895.16 L318.82,916.21 L358.08,932.73 L397.10,945.01 L435.43,953.41 L472.72,958.27 L508.70,959.99 L543.19,958.91 L576.06,955.40 L607.22,949.76 L636.66,942.31 L664.36,933.30 L690.36,922.96 L714.69,911.52 L737.42,899.16 L758.61,886.02 L778.32,872.25 L796.63,857.96 L813.62,843.26 L829.34,828.22 L843.89,812.92 L857.31,797.42 L869.67,781.77 L881.04,766.00 L891.46,750.15 L900.98,734.25 L909.66,718.32 L917.54,702.37 L924.65,686.42 L931.03,670.48 L936.72,654.55 L941.73,638.64 L946.10,622.75 L949.84,606.88 L952.97,591.03 L955.52,575.20 L957.49,559.39 L958.89,543.58 L959.72,527.79 Z" fill="#1E1E1E" stroke="#FFD479" stroke-width="8"/>
  <path d="M850.40,512.00 L850.14,500.65 L849.36,489.32 L848.06,478.01 L846.23,466.73 L843.88,455.50 L840.99,444.34 L837.55,433.24 L833.57,422.24 L829.04,411.35 L823.94,400.58 L818.26,389.96 L812.00,379.50 L805.14,369.24 L797.67,359.19 L789.59,349.40 L780.87,339.89 L771.51,330.70 L761.51,321.87 L750.84,313.44 L739.51,305.47 L727.51,298.00 L714.84,291.09 L701.51,284.81 L687.52,279.22 L672.89,274.40 L657.64,270.41 L641.80,267.35 L625.41,265.28 L608.52,264.30 L591.20,264.50 L573.52,265.95 L555.57,268.74 L537.46,272.96 L519.31,278.66 L501.25,285.92 L483.44,294.78 L466.06,305.27 L449.26,317.41 L433.26,331.17 L418.23,346.51 L404.39,363.38 L391.91,381.67 L381.00,401.25 L371.81,421.96 L364.49,443.61 L359.18,465.99 L355.95,488.87 L354.87,512.00 L355.95,535.13 L359.18,558.01 L364.49,580.39 L371.81,602.04 L381.00,622.75 L391.91,642.33 L404.39,660.62 L418.23,677.49 L433.26,692.83 L449.26,706.59 L466.06,718.73 L483.44,729.22 L501.25,738.08 L519.31,745.34 L537.46,751.04 L555.57,755.26 L573.52,758.05 L591.20,759.50 L608.52,759.70 L625.41,758.72 L641.80,756.65 L657.64,753.59 L672.89,749.60 L687.52,744.78 L701.51,739.19 L714.84,732.91 L727.51,726.00 L739.51,718.53 L750.84,710.56 L761.51,702.13 L771.51,693.30 L780.87,684.11 L789.59,674.60 L797.67,664.81 L805.14,654.76 L812.00,644.50 L818.26,634.04 L823.94,623.42 L829.04,612.65 L833.57,601.76 L837.55,590.76 L840.99,579.66 L843.88,568.50 L846.23,557.27 L848.06,545.99 L849.36,534.68 L850.14,523.35 Z" fill="#101010" stroke="#FFD47999" stroke-width="6"/>
  <path d="M955.82,461.89 L956.04,458.62 L956.06,455.34 L955.89,452.06 L955.52,448.80 L954.96,445.56 L954.21,442.35 L953.26,439.19 L952.13,436.09 L950.81,433.04 L949.30,430.08 L947.62,427.20 L945.75,424.41 L943.71,421.74 L941.51,419.18 L939.13,416.75 L936.61,414.45 L933.93,412.31 L931.11,410.33 L928.15,408.52 L925.07,406.88 L921.87,405.44 L918.56,404.19 L915.17,403.15 L911.68,402.33 L908.14,401.73 L904.53,401.36 L900.89,401.23 L897.22,401.34 L893.54,401.69 L889.87,402.29 L886.22,403.15 L882.62,404.26 L879.08,405.61 L875.63,407.22 L872.27,409.07 L869.03,411.17 L865.93,413.49 L862.99,416.04 L860.22,418.80 L857.64,421.76 L855.27,424.92 L853.12,428.24 L851.21,431.72 L849.55,435.34 L848.15,439.07 L847.02,442.91 L846.17,446.82 L845.61,450.78 L845.33,454.78 L845.34,458.79 L845.65,462.78 L846.23,466.73 L847.10,470.63 L848.25,474.45 L849.66,478.16 L851.34,481.76 L853.25,485.21 L855.41,488.51 L857.78,491.63 L860.35,494.57 L863.11,497.30 L866.04,499.82 L869.12,502.12 L872.34,504.19 L875.67,506.03 L879.09,507.62 L882.60,508.96 L886.17,510.06 L889.78,510.91 L893.41,511.52 L897.05,511.88 L900.69,512.00 L904.30,511.88 L907.87,511.53 L911.39,510.96 L914.84,510.16 L918.22,509.15 L921.50,507.94 L924.68,506.53 L927.75,504.94 L930.70,503.17 L933.51,501.22 L936.19,499.12 L938.72,496.87 L941.10,494.48 L943.33,491.96 L945.38,489.33 L947.27,486.58 L948.98,483.73 L950.52,480.80 L951.87,477.78 L953.04,474.70 L954.02,471.56 L954.81,468.37 L955.41,465.14 Z" fill="#FFD479" stroke="#FFD479" stroke-width="3"/>
  <path d="M921.03,363.47 L921.89,360.02 L922.54,356.52 L922.98,353.00 L923.22,349.45 L923.24,345.89 L923.05,342.33 L922.66,338.79 L922.05,335.26 L921.23,331.78 L920.21,328.33 L918.98,324.95 L917.54,321.63 L915.90,318.39 L914.06,315.24 L912.02,312.20 L909.79,309.28 L907.38,306.48 L904.78,303.82 L902.01,301.31 L899.08,298.97 L895.98,296.80 L892.73,294.82 L889.34,293.03 L885.82,291.46 L882.19,290.10 L878.45,288.98 L874.62,288.09 L870.71,287.45 L866.74,287.07 L862.73,286.95 L858.69,287.10 L854.64,287.53 L850.61,288.23 L846.60,289.21 L842.65,290.47 L838.77,292.01 L834.99,293.83 L831.32,295.92 L827.79,298.27 L824.41,300.87 L821.22,303.73 L818.22,306.81 L815.44,310.12 L812.90,313.63 L810.60,317.32 L808.58,321.18 L806.84,325.18 L805.38,329.31 L804.23,333.53 L803.39,337.83 L802.87,342.18 L802.66,346.55 L802.76,350.93 L803.19,355.27 L803.92,359.57 L804.97,363.80 L806.30,367.92 L807.93,371.93 L809.83,375.80 L812.00,379.50 L814.41,383.03 L817.05,386.36 L819.90,389.48 L822.95,392.38 L826.18,395.04 L829.56,397.46 L833.08,399.63 L836.71,401.54 L840.44,403.19 L844.25,404.58 L848.11,405.70 L852.02,406.55 L855.94,407.15 L859.87,407.48 L863.79,407.55 L867.67,407.37 L871.52,406.94 L875.30,406.28 L879.00,405.38 L882.62,404.26 L886.14,402.92 L889.55,401.37 L892.84,399.63 L896.00,397.69 L899.02,395.58 L901.89,393.30 L904.61,390.86 L907.16,388.27 L909.54,385.54 L911.75,382.69 L913.77,379.71 L915.61,376.64 L917.26,373.46 L918.72,370.20 L919.98,366.87 Z" fill="#FFD479" stroke="#FFD479" stroke-width="3"/>
  <path d="M844.38,274.10 L845.91,270.22 L847.21,266.26 L848.27,262.24 L849.09,258.16 L849.68,254.04 L850.02,249.88 L850.12,245.71 L849.98,241.54 L849.59,237.37 L848.96,233.22 L848.08,229.11 L846.95,225.04 L845.58,221.02 L843.96,217.09 L842.11,213.24 L840.02,209.49 L837.69,205.85 L835.13,202.35 L832.35,198.98 L829.34,195.78 L826.13,192.75 L822.71,189.90 L819.10,187.26 L815.30,184.83 L811.32,182.64 L807.19,180.69 L802.90,178.99 L798.48,177.57 L793.95,176.43 L789.31,175.59 L784.60,175.05 L779.82,174.82 L775.01,174.92 L770.18,175.35 L765.35,176.11 L760.56,177.21 L755.82,178.65 L751.16,180.43 L746.62,182.54 L742.20,184.98 L737.95,187.74 L733.89,190.81 L730.04,194.18 L726.42,197.84 L723.07,201.76 L720.00,205.93 L717.23,210.32 L714.79,214.92 L712.68,219.69 L710.93,224.60 L709.54,229.64 L708.52,234.76 L707.88,239.94 L707.62,245.15 L707.74,250.36 L708.25,255.54 L709.12,260.65 L710.36,265.67 L711.96,270.56 L713.89,275.32 L716.15,279.90 L718.73,284.28 L721.59,288.45 L724.72,292.39 L728.10,296.07 L731.71,299.48 L735.52,302.62 L739.51,305.47 L743.66,308.02 L747.94,310.26 L752.33,312.20 L756.81,313.83 L761.35,315.14 L765.93,316.14 L770.54,316.84 L775.15,317.23 L779.74,317.32 L784.29,317.12 L788.79,316.63 L793.22,315.87 L797.56,314.83 L801.80,313.54 L805.93,311.99 L809.92,310.21 L813.78,308.19 L817.49,305.96 L821.04,303.51 L824.41,300.87 L827.61,298.05 L830.62,295.06 L833.44,291.90 L836.05,288.59 L838.46,285.15 L840.65,281.57 L842.63,277.89 Z" fill="#FFD479" stroke="#FFD479" stroke-width="3"/>
  <path d="M714.79,214.92 L716.93,210.17 L718.79,205.32 L720.36,200.37 L721.65,195.34 L722.65,190.24 L723.35,185.09 L723.75,179.91 L723.86,174.70 L723.66,169.48 L723.16,164.27 L722.36,159.08 L721.25,153.93 L719.83,148.83 L718.11,143.81 L716.09,138.87 L713.76,134.03 L711.14,129.32 L708.22,124.74 L705.01,120.33 L701.52,116.08 L697.75,112.04 L693.71,108.20 L689.40,104.59 L684.84,101.24 L680.05,98.15 L675.02,95.36 L669.79,92.87 L664.36,90.70 L658.76,88.88 L653.00,87.42 L647.10,86.33 L641.10,85.63 L635.02,85.34 L628.87,85.46 L622.71,86.00 L616.54,86.98 L610.41,88.39 L604.35,90.24 L598.40,92.53 L592.58,95.25 L586.94,98.40 L581.50,101.97 L576.31,105.95 L571.40,110.31 L566.80,115.04 L562.54,120.12 L558.65,125.51 L555.16,131.20 L552.10,137.14 L549.48,143.30 L547.32,149.64 L545.63,156.13 L544.44,162.73 L543.74,169.39 L543.53,176.07 L543.82,182.74 L544.60,189.35 L545.86,195.86 L547.59,202.24 L549.77,208.45 L552.38,214.46 L555.41,220.23 L558.82,225.74 L562.60,230.95 L566.71,235.85 L571.12,240.42 L575.81,244.63 L580.75,248.48 L585.90,251.95 L591.23,255.03 L596.71,257.73 L602.32,260.03 L608.02,261.93 L613.79,263.44 L619.59,264.55 L625.41,265.28 L631.21,265.63 L636.98,265.60 L642.68,265.21 L648.31,264.47 L653.83,263.38 L659.24,261.97 L664.51,260.23 L669.62,258.19 L674.58,255.86 L679.35,253.25 L683.92,250.38 L688.30,247.25 L692.45,243.89 L696.38,240.30 L700.08,236.51 L703.54,232.52 L706.74,228.36 L709.69,224.02 L712.37,219.54 Z" fill="#FFD479" stroke="#FFD479" stroke-width="3"/>
  <path d="M536.15,234.80 L538.39,228.56 L540.28,222.20 L541.79,215.76 L542.95,209.24 L543.73,202.65 L544.14,196.03 L544.17,189.39 L543.82,182.74 L543.10,176.10 L541.99,169.50 L540.50,162.94 L538.63,156.46 L536.38,150.06 L533.74,143.77 L530.73,137.62 L527.34,131.61 L523.57,125.78 L519.44,120.14 L514.95,114.72 L510.10,109.55 L504.90,104.64 L499.36,100.01 L493.51,95.71 L487.34,91.74 L480.87,88.13 L474.13,84.92 L467.13,82.11 L459.89,79.75 L452.45,77.84 L444.82,76.41 L437.04,75.49 L429.14,75.09 L421.16,75.22 L413.13,75.91 L405.10,77.16 L397.10,78.99 L389.18,81.39 L381.39,84.37 L373.77,87.93 L366.38,92.06 L359.25,96.75 L352.44,101.98 L346.00,107.74 L339.96,113.98 L334.38,120.70 L329.29,127.83 L324.74,135.36 L320.76,143.23 L317.37,151.40 L314.60,159.81 L312.48,168.41 L311.01,177.15 L310.21,185.97 L310.08,194.81 L310.61,203.62 L311.80,212.34 L313.64,220.91 L316.10,229.29 L319.16,237.42 L322.80,245.27 L326.97,252.78 L331.66,259.91 L336.81,266.64 L342.40,272.94 L348.37,278.77 L354.69,284.12 L361.32,288.97 L368.20,293.31 L375.31,297.13 L382.59,300.42 L390.01,303.18 L397.53,305.42 L405.10,307.13 L412.70,308.33 L420.29,309.02 L427.84,309.22 L435.31,308.93 L442.69,308.18 L449.93,306.98 L457.02,305.34 L463.94,303.28 L470.66,300.82 L477.17,297.99 L483.44,294.78 L489.47,291.24 L495.24,287.36 L500.73,283.19 L505.94,278.72 L510.85,273.98 L515.45,268.99 L519.73,263.77 L523.69,258.34 L527.32,252.71 L530.61,246.89 L533.56,240.92 Z" fill="#FFD479" stroke="#FFD479" stroke-width="3"/>
  <path d="M379.93,391.42 L380.88,383.59 L381.38,375.72 L381.45,367.83 L381.08,359.94 L380.26,352.07 L379.01,344.24 L377.31,336.47 L375.17,328.79 L372.59,321.20 L369.57,313.75 L366.11,306.44 L362.22,299.30 L357.90,292.36 L353.15,285.63 L347.98,279.15 L342.40,272.94 L336.41,267.02 L330.03,261.43 L323.26,256.18 L316.13,251.32 L308.63,246.86 L300.81,242.83 L292.67,239.26 L284.23,236.19 L275.53,233.63 L266.59,231.62 L257.44,230.18 L248.11,229.34 L238.66,229.11 L229.11,229.53 L219.51,230.60 L209.91,232.35 L200.36,234.78 L190.91,237.91 L181.62,241.73 L172.54,246.25 L163.73,251.45 L155.25,257.33 L147.16,263.86 L139.52,271.03 L132.39,278.79 L125.81,287.12 L119.84,295.97 L114.54,305.29 L109.94,315.02 L106.08,325.11 L103.00,335.49 L100.71,346.10 L99.25,356.86 L98.61,367.70 L98.81,378.55 L99.84,389.34 L101.68,400.00 L104.33,410.45 L107.75,420.64 L111.91,430.49 L116.78,439.95 L122.31,448.96 L128.45,457.49 L135.16,465.47 L142.39,472.89 L150.07,479.71 L158.15,485.89 L166.59,491.44 L175.31,496.32 L184.26,500.54 L193.40,504.09 L202.66,506.97 L212.00,509.20 L221.37,510.76 L230.73,511.69 L240.03,512.00 L249.23,511.70 L258.30,510.81 L267.20,509.37 L275.91,507.37 L284.39,504.87 L292.61,501.86 L300.56,498.40 L308.21,494.48 L315.55,490.15 L322.55,485.43 L329.21,480.34 L335.51,474.91 L341.44,469.16 L346.98,463.12 L352.14,456.81 L356.89,450.24 L361.24,443.46 L365.18,436.46 L368.71,429.29 L371.81,421.96 L374.48,414.48 L376.73,406.89 L378.55,399.20 Z" fill="#FFD479" stroke="#FFD479" stroke-width="3"/>
  <path d="M379.93,632.58 L378.55,624.80 L376.73,617.11 L374.48,609.52 L371.81,602.04 L368.71,594.71 L365.18,587.54 L361.24,580.54 L356.89,573.76 L352.14,567.19 L346.98,560.88 L341.44,554.84 L335.51,549.09 L329.21,543.66 L322.55,538.57 L315.55,533.85 L308.21,529.52 L300.56,525.60 L292.61,522.14 L284.39,519.13 L275.91,516.63 L267.20,514.63 L258.30,513.19 L249.23,512.30 L240.03,512.00 L230.73,512.31 L221.37,513.24 L212.00,514.80 L202.66,517.03 L193.40,519.91 L184.26,523.46 L175.31,527.68 L166.59,532.56 L158.15,538.11 L150.07,544.29 L142.39,551.11 L135.16,558.53 L128.45,566.51 L122.31,575.04 L116.78,584.05 L111.91,593.51 L107.75,603.36 L104.33,613.55 L101.68,624.00 L99.84,634.66 L98.81,645.45 L98.61,656.30 L99.25,667.14 L100.71,677.90 L103.00,688.51 L106.08,698.89 L109.94,708.98 L114.54,718.71 L119.84,728.03 L125.81,736.88 L132.39,745.21 L139.52,752.97 L147.16,760.14 L155.25,766.67 L163.73,772.55 L172.54,777.75 L181.62,782.27 L190.91,786.09 L200.36,789.22 L209.91,791.65 L219.51,793.40 L229.11,794.47 L238.66,794.89 L248.11,794.66 L257.44,793.82 L266.59,792.38 L275.53,790.37 L284.23,787.81 L292.67,784.74 L300.81,781.17 L308.63,777.14 L316.13,772.68 L323.26,767.82 L330.03,762.57 L336.41,756.98 L342.40,751.06 L347.98,744.85 L353.15,738.37 L357.90,731.64 L362.22,724.70 L366.11,717.56 L369.57,710.25 L372.59,702.80 L375.17,695.21 L377.31,687.53 L379.01,679.76 L380.26,671.93 L381.08,664.06 L381.45,656.17 L381.38,648.28 L380.88,640.41 Z" fill="#FFD479" stroke="#FFD479" stroke-width="3"/>
  <path d="M536.15,789.20 L533.56,783.08 L530.61,777.11 L527.32,771.29 L523.69,765.66 L519.73,760.23 L515.45,755.01 L510.85,750.02 L505.94,745.28 L500.73,740.81 L495.24,736.64 L489.47,732.76 L483.44,729.22 L477.17,726.01 L470.66,723.18 L463.94,720.72 L457.02,718.66 L449.93,717.02 L442.69,715.82 L435.31,715.07 L427.84,714.78 L420.29,714.98 L412.70,715.67 L405.10,716.87 L397.53,718.58 L390.01,720.82 L382.59,723.58 L375.31,726.87 L368.20,730.69 L361.32,735.03 L354.69,739.88 L348.37,745.23 L342.40,751.06 L336.81,757.36 L331.66,764.09 L326.97,771.22 L322.80,778.73 L319.16,786.58 L316.10,794.71 L313.64,803.09 L311.80,811.66 L310.61,820.38 L310.08,829.19 L310.21,838.03 L311.01,846.85 L312.48,855.59 L314.60,864.19 L317.37,872.60 L320.76,880.77 L324.74,888.64 L329.29,896.17 L334.38,903.30 L339.96,910.02 L346.00,916.26 L352.44,922.02 L359.25,927.25 L366.38,931.94 L373.77,936.07 L381.39,939.63 L389.18,942.61 L397.10,945.01 L405.10,946.84 L413.13,948.09 L421.16,948.78 L429.14,948.91 L437.04,948.51 L444.82,947.59 L452.45,946.16 L459.89,944.25 L467.13,941.89 L474.13,939.08 L480.87,935.87 L487.34,932.26 L493.51,928.29 L499.36,923.99 L504.90,919.36 L510.10,914.45 L514.95,909.28 L519.44,903.86 L523.57,898.22 L527.34,892.39 L530.73,886.38 L533.74,880.23 L536.38,873.94 L538.63,867.54 L540.50,861.06 L541.99,854.50 L543.10,847.90 L543.82,841.26 L544.17,834.61 L544.14,827.97 L543.73,821.35 L542.95,814.76 L541.79,808.24 L540.28,801.80 L538.39,795.44 Z" fill="#FFD479" stroke="#FFD479" stroke-width="3"/>
  <path d="M714.79,809.08 L712.37,804.46 L709.69,799.98 L706.74,795.64 L703.54,791.48 L700.08,787.49 L696.38,783.70 L692.45,780.11 L688.30,776.75 L683.92,773.62 L679.35,770.75 L674.58,768.14 L669.62,765.81 L664.51,763.77 L659.24,762.03 L653.83,760.62 L648.31,759.53 L642.68,758.79 L636.98,758.40 L631.21,758.37 L625.41,758.72 L619.59,759.45 L613.79,760.56 L608.02,762.07 L602.32,763.97 L596.71,766.27 L591.23,768.97 L585.90,772.05 L580.75,775.52 L575.81,779.37 L571.12,783.58 L566.71,788.15 L562.60,793.05 L558.82,798.26 L555.41,803.77 L552.38,809.54 L549.77,815.55 L547.59,821.76 L545.86,828.14 L544.60,834.65 L543.82,841.26 L543.53,847.93 L543.74,854.61 L544.44,861.27 L545.63,867.87 L547.32,874.36 L549.48,880.70 L552.10,886.86 L555.16,892.80 L558.65,898.49 L562.54,903.88 L566.80,908.96 L571.40,913.69 L576.31,918.05 L581.50,922.03 L586.94,925.60 L592.58,928.75 L598.40,931.47 L604.35,933.76 L610.41,935.61 L616.54,937.02 L622.71,938.00 L628.87,938.54 L635.02,938.66 L641.10,938.37 L647.10,937.67 L653.00,936.58 L658.76,935.12 L664.36,933.30 L669.79,931.13 L675.02,928.64 L680.05,925.85 L684.84,922.76 L689.40,919.41 L693.71,915.80 L697.75,911.96 L701.52,907.92 L705.01,903.67 L708.22,899.26 L711.14,894.68 L713.76,889.97 L716.09,885.13 L718.11,880.19 L719.83,875.17 L721.25,870.07 L722.36,864.92 L723.16,859.73 L723.66,854.52 L723.86,849.30 L723.75,844.09 L723.35,838.91 L722.65,833.76 L721.65,828.66 L720.36,823.63 L718.79,818.68 L716.93,813.83 Z" fill="#FFD479" stroke="#FFD479" stroke-width="3"/>
  <path d="M844.38,749.90 L842.63,746.11 L840.65,742.43 L838.46,738.85 L836.05,735.41 L833.44,732.10 L830.62,728.94 L827.61,725.95 L824.41,723.13 L821.04,720.49 L817.49,718.04 L813.78,715.81 L809.92,713.79 L805.93,712.01 L801.80,710.46 L797.56,709.17 L793.22,708.13 L788.79,707.37 L784.29,706.88 L779.74,706.68 L775.15,706.77 L770.54,707.16 L765.93,707.86 L761.35,708.86 L756.81,710.17 L752.33,711.80 L747.94,713.74 L743.66,715.98 L739.51,718.53 L735.52,721.38 L731.71,724.52 L728.10,727.93 L724.72,731.61 L721.59,735.55 L718.73,739.72 L716.15,744.10 L713.89,748.68 L711.96,753.44 L710.36,758.33 L709.12,763.35 L708.25,768.46 L707.74,773.64 L707.62,778.85 L707.88,784.06 L708.52,789.24 L709.54,794.36 L710.93,799.40 L712.68,804.31 L714.79,809.08 L717.23,813.68 L720.00,818.07 L723.07,822.24 L726.42,826.16 L730.04,829.82 L733.89,833.19 L737.95,836.26 L742.20,839.02 L746.62,841.46 L751.16,843.57 L755.82,845.35 L760.56,846.79 L765.35,847.89 L770.18,848.65 L775.01,849.08 L779.82,849.18 L784.60,848.95 L789.31,848.41 L793.95,847.57 L798.48,846.43 L802.90,845.01 L807.19,843.31 L811.32,841.36 L815.30,839.17 L819.10,836.74 L822.71,834.10 L826.13,831.25 L829.34,828.22 L832.35,825.02 L835.13,821.65 L837.69,818.15 L840.02,814.51 L842.11,810.76 L843.96,806.91 L845.58,802.98 L846.95,798.96 L848.08,794.89 L848.96,790.78 L849.59,786.63 L849.98,782.46 L850.12,778.29 L850.02,774.12 L849.68,769.96 L849.09,765.84 L848.27,761.76 L847.21,757.74 L845.91,753.78 Z" fill="#FFD479" stroke="#FFD479" stroke-width="3"/>
  <path d="M921.03,660.53 L919.98,657.13 L918.72,653.80 L917.26,650.54 L915.61,647.36 L913.77,644.29 L911.75,641.31 L909.54,638.46 L907.16,635.73 L904.61,633.14 L901.89,630.70 L899.02,628.42 L896.00,626.31 L892.84,624.37 L889.55,622.63 L886.14,621.08 L882.62,619.74 L879.00,618.62 L875.30,617.72 L871.52,617.06 L867.67,616.63 L863.79,616.45 L859.87,616.52 L855.94,616.85 L852.02,617.45 L848.11,618.30 L844.25,619.42 L840.44,620.81 L836.71,622.46 L833.08,624.37 L829.56,626.54 L826.18,628.96 L822.95,631.62 L819.90,634.52 L817.05,637.64 L814.41,640.97 L812.00,644.50 L809.83,648.20 L807.93,652.07 L806.30,656.08 L804.97,660.20 L803.92,664.43 L803.19,668.73 L802.76,673.07 L802.66,677.45 L802.87,681.82 L803.39,686.17 L804.23,690.47 L805.38,694.69 L806.84,698.82 L808.58,702.82 L810.60,706.68 L812.90,710.37 L815.44,713.88 L818.22,717.19 L821.22,720.27 L824.41,723.13 L827.79,725.73 L831.32,728.08 L834.99,730.17 L838.77,731.99 L842.65,733.53 L846.60,734.79 L850.61,735.77 L854.64,736.47 L858.69,736.90 L862.73,737.05 L866.74,736.93 L870.71,736.55 L874.62,735.91 L878.45,735.02 L882.19,733.90 L885.82,732.54 L889.34,730.97 L892.73,729.18 L895.98,727.20 L899.08,725.03 L902.01,722.69 L904.78,720.18 L907.38,717.52 L909.79,714.72 L912.02,711.80 L914.06,708.76 L915.90,705.61 L917.54,702.37 L918.98,699.05 L920.21,695.67 L921.23,692.22 L922.05,688.74 L922.66,685.21 L923.05,681.67 L923.24,678.11 L923.22,674.55 L922.98,671.00 L922.54,667.48 L921.89,663.98 Z" fill="#FFD479" stroke="#FFD479" stroke-width="3"/>
  <path d="M955.82,562.11 L955.41,558.86 L954.81,555.63 L954.02,552.44 L953.04,549.30 L951.87,546.22 L950.52,543.20 L948.98,540.27 L947.27,537.42 L945.38,534.67 L943.33,532.04 L941.10,529.52 L938.72,527.13 L936.19,524.88 L933.51,522.78 L930.70,520.83 L927.75,519.06 L924.68,517.47 L921.50,516.06 L918.22,514.85 L914.84,513.84 L911.39,513.04 L907.87,512.47 L904.30,512.12 L900.69,512.00 L897.05,512.12 L893.41,512.48 L889.78,513.09 L886.17,513.94 L882.60,515.04 L879.09,516.38 L875.67,517.97 L872.34,519.81 L869.12,521.88 L866.04,524.18 L863.11,526.70 L860.35,529.43 L857.78,532.37 L855.41,535.49 L853.25,538.79 L851.34,542.24 L849.66,545.84 L848.25,549.55 L847.10,553.37 L846.23,557.27 L845.65,561.22 L845.34,565.21 L845.33,569.22 L845.61,573.22 L846.17,577.18 L847.02,581.09 L848.15,584.93 L849.55,588.66 L851.21,592.28 L853.12,595.76 L855.27,599.08 L857.64,602.24 L860.22,605.20 L862.99,607.96 L865.93,610.51 L869.03,612.83 L872.27,614.93 L875.63,616.78 L879.08,618.39 L882.62,619.74 L886.22,620.85 L889.87,621.71 L893.54,622.31 L897.22,622.66 L900.89,622.77 L904.53,622.64 L908.14,622.27 L911.68,621.67 L915.17,620.85 L918.56,619.81 L921.87,618.56 L925.07,617.12 L928.15,615.48 L931.11,613.67 L933.93,611.69 L936.61,609.55 L939.13,607.25 L941.51,604.82 L943.71,602.26 L945.75,599.59 L947.62,596.80 L949.30,593.92 L950.81,590.96 L952.13,587.91 L953.26,584.81 L954.21,581.65 L954.96,578.44 L955.52,575.20 L955.89,571.94 L956.06,568.66 L956.04,565.38 Z" fill="#FFD479" stroke="#FFD479" stroke-width="3"/>
</svg>