<svg xmlns="http://www.w3.org/2000/svg" width="1024" height="1024" viewBox="0 0 1024 1024">
    <path d="M804.00,512.00 L803.82,501.71 L803.27,491.41 L802.36,481.12 L801.08,470.81 L799.42,460.49 L797.38,450.16 L794.94,439.82 L792.09,429.46 L788.82,419.09 L785.12,408.71 L780.96,398.31 L776.33,387.92 L771.19,377.52 L765.53,367.14 L759.32,356.78 L752.53,346.45 L745.13,336.17 L737.07,325.97 L728.32,315.86 L718.84,305.89 L708.59,296.09 L697.52,286.51 L685.58,277.20 L672.73,268.22 L658.93,259.66 L644.11,251.60 L628.25,244.14 L611.31,237.41 L593.25,231.53 L574.06,226.67 L553.75,223.00 L532.33,220.71 L509.85,220.01 L486.40,221.12 L462.09,224.30 L437.11,229.77 L411.68,237.77 L386.09,248.54 L360.69,262.26 L335.91,279.07 L312.21,299.04 L290.12,322.17 L270.19,348.32 L252.94,377.27 L238.91,408.64 L228.53,441.95 L222.15,476.63 L220.00,512.00 L222.15,547.37 L228.53,582.05 L238.91,615.36 L252.94,646.73 L270.19,675.68 L290.12,701.83 L312.21,724.96 L335.91,744.93 L360.69,761.74 L386.09,775.46 L411.68,786.23 L437.11,794.23 L462.09,799.70 L486.40,802.88 L509.85,803.99 L532.33,803.29 L553.75,801.00 L574.06,797.33 L593.25,792.47 L611.31,786.59 L628.25,779.86 L644.11,772.40 L658.93,764.34 L672.73,755.78 L685.58,746.80 L697.52,737.49 L708.59,727.91 L718.84,718.11 L728.32,708.14 L737.07,698.03 L745.13,687.83 L752.53,677.55 L759.32,667.22 L765.53,656.86 L771.19,646.48 L776.33,636.08 L780.96,625.69 L785.12,615.29 L788.82,604.91 L792.09,594.54 L794.94,584.18 L797.38,573.84 L799.42,563.51 L801.08,553.19 L802.36,542.88 L803.27,532.59 L803.82,522.29 Z" fill="#1E1E1E" stroke="#FFD479" stroke-width="8"/>
  <path d="M732.57,512.00 L732.40,504.61 L731.89,497.22 L731.04,489.85 L729.85,482.50 L728.31,475.18 L726.43,467.90 L724.19,460.67 L721.60,453.50 L718.64,446.40 L715.32,439.38 L711.62,432.45 L707.53,425.64 L703.06,418.95 L698.20,412.40 L692.93,406.02 L687.25,399.82 L681.15,393.83 L674.62,388.08 L667.67,382.58 L660.29,377.39 L652.47,372.52 L644.21,368.02 L635.52,363.92 L626.40,360.28 L616.86,357.14 L606.92,354.54 L596.60,352.54 L585.92,351.19 L574.91,350.55 L563.62,350.68 L552.10,351.63 L540.40,353.45 L528.59,356.20 L516.76,359.91 L504.99,364.65 L493.39,370.42 L482.05,377.26 L471.11,385.17 L460.68,394.14 L450.88,404.14 L441.86,415.13 L433.73,427.05 L426.61,439.81 L420.62,453.31 L415.86,467.42 L412.39,482.01 L410.29,496.92 L409.58,512.00 L410.29,527.08 L412.39,541.99 L415.86,556.58 L420.62,570.69 L426.61,584.19 L433.73,596.95 L441.86,608.87 L450.88,619.86 L460.68,629.86 L471.11,638.83 L482.05,646.74 L493.39,653.58 L504.99,659.35 L516.76,664.09 L528.59,667.80 L540.40,670.55 L552.10,672.37 L563.62,673.32 L574.91,673.45 L585.92,672.81 L596.60,671.46 L606.92,669.46 L616.86,666.86 L626.40,663.72 L635.52,660.08 L644.21,655.98 L652.47,651.48 L660.29,646.61 L667.67,641.42 L674.62,635.92 L681.15,630.17 L687.25,624.18 L692.93,617.98 L698.20,611.60 L703.06,605.05 L707.53,598.36 L711.62,591.55 L715.32,584.62 L718.64,577.60 L721.60,570.50 L724.19,563.33 L726.43,556.10 L728.31,548.82 L729.85,541.50 L731.04,534.15 L731.89,526.78 L732.40,519.39 Z" fill="#101010" stroke="#FFD47999" stroke-width="6"/>
  <path d="M801.28,479.34 L801.42,477.21 L801.43,475.07 L801.32,472.93 L801.08,470.81 L800.71,468.70 L800.22,466.61 L799.61,464.55 L798.87,462.52 L798.01,460.54 L797.03,458.60 L795.93,456.73 L794.71,454.91 L793.38,453.17 L791.95,451.50 L790.40,449.91 L788.75,448.42 L787.01,447.02 L785.17,445.73 L783.24,444.55 L781.23,443.49 L779.15,442.54 L776.99,441.73 L774.78,441.06 L772.51,440.52 L770.20,440.13 L767.85,439.89 L765.47,439.80 L763.08,439.87 L760.68,440.10 L758.29,440.50 L755.91,441.05 L753.57,441.77 L751.26,442.66 L749.01,443.71 L746.82,444.91 L744.71,446.28 L742.69,447.79 L740.77,449.45 L738.96,451.25 L737.28,453.19 L735.74,455.24 L734.34,457.41 L733.09,459.68 L732.01,462.03 L731.10,464.47 L730.36,466.97 L729.81,469.52 L729.44,472.10 L729.26,474.70 L729.27,477.32 L729.47,479.92 L729.85,482.50 L730.42,485.04 L731.16,487.52 L732.09,489.94 L733.17,492.29 L734.43,494.54 L735.83,496.69 L737.37,498.72 L739.05,500.64 L740.85,502.42 L742.76,504.06 L744.77,505.56 L746.86,506.91 L749.03,508.11 L751.27,509.14 L753.55,510.02 L755.88,510.74 L758.23,511.29 L760.60,511.69 L762.97,511.92 L765.34,512.00 L767.69,511.92 L770.02,511.70 L772.32,511.32 L774.57,510.80 L776.77,510.14 L778.91,509.35 L780.98,508.44 L782.98,507.40 L784.90,506.24 L786.74,504.98 L788.48,503.61 L790.13,502.14 L791.68,500.58 L793.13,498.94 L794.47,497.22 L795.70,495.43 L796.82,493.58 L797.82,491.66 L798.70,489.70 L799.46,487.69 L800.10,485.64 L800.62,483.56 L801.01,481.46 Z" fill="#FFD479" stroke="#FFD479" stroke-width="3"/>
  <path d="M778.60,415.19 L779.16,412.94 L779.58,410.66 L779.87,408.36 L780.02,406.05 L780.04,403.73 L779.92,401.41 L779.66,399.10 L779.27,396.81 L778.73,394.53 L778.07,392.29 L777.26,390.08 L776.33,387.92 L775.26,385.81 L774.06,383.76 L772.73,381.78 L771.28,379.87 L769.70,378.04 L768.01,376.31 L766.21,374.68 L764.29,373.15 L762.27,371.73 L760.15,370.44 L757.95,369.28 L755.65,368.25 L753.28,367.37 L750.85,366.64 L748.35,366.06 L745.80,365.64 L743.21,365.39 L740.60,365.32 L737.97,365.41 L735.33,365.69 L732.70,366.15 L730.09,366.79 L727.51,367.61 L724.99,368.61 L722.52,369.80 L720.13,371.16 L717.82,372.69 L715.63,374.39 L713.54,376.25 L711.59,378.26 L709.78,380.42 L708.12,382.70 L706.63,385.11 L705.31,387.63 L704.17,390.23 L703.22,392.92 L702.47,395.68 L701.93,398.48 L701.58,401.31 L701.45,404.16 L701.52,407.01 L701.79,409.85 L702.27,412.65 L702.95,415.40 L703.82,418.09 L704.88,420.70 L706.12,423.22 L707.53,425.64 L709.11,427.94 L710.83,430.11 L712.69,432.14 L714.68,434.03 L716.78,435.77 L718.98,437.35 L721.27,438.76 L723.64,440.01 L726.07,441.08 L728.55,441.98 L731.07,442.72 L733.62,443.27 L736.18,443.66 L738.74,443.87 L741.29,443.92 L743.82,443.80 L746.33,443.53 L748.79,443.09 L751.21,442.51 L753.57,441.77 L755.86,440.90 L758.08,439.89 L760.23,438.76 L762.29,437.50 L764.25,436.12 L766.13,434.63 L767.90,433.04 L769.56,431.35 L771.11,429.58 L772.55,427.72 L773.87,425.78 L775.07,423.77 L776.14,421.70 L777.09,419.58 L777.91,417.40 Z" fill="#FFD479" stroke="#FFD479" stroke-width="3"/>
  <path d="M728.64,356.94 L729.64,354.41 L730.48,351.83 L731.17,349.21 L731.71,346.55 L732.09,343.86 L732.32,341.16 L732.38,338.44 L732.29,335.72 L732.04,333.00 L731.62,330.30 L731.05,327.61 L730.31,324.96 L729.42,322.35 L728.37,319.78 L727.16,317.27 L725.80,314.83 L724.28,312.46 L722.61,310.17 L720.80,307.98 L718.84,305.89 L716.75,303.91 L714.52,302.06 L712.16,300.34 L709.68,298.76 L707.09,297.33 L704.40,296.05 L701.61,294.95 L698.73,294.02 L695.77,293.28 L692.75,292.73 L689.68,292.38 L686.56,292.23 L683.43,292.30 L680.28,292.58 L677.13,293.07 L674.01,293.79 L670.92,294.73 L667.88,295.88 L664.92,297.26 L662.04,298.85 L659.27,300.65 L656.62,302.65 L654.11,304.85 L651.76,307.24 L649.57,309.79 L647.57,312.51 L645.77,315.37 L644.17,318.37 L642.80,321.47 L641.66,324.68 L640.75,327.96 L640.09,331.30 L639.67,334.68 L639.50,338.07 L639.58,341.47 L639.91,344.84 L640.48,348.17 L641.29,351.44 L642.33,354.64 L643.59,357.73 L645.07,360.72 L646.74,363.58 L648.61,366.29 L650.65,368.86 L652.85,371.26 L655.20,373.49 L657.69,375.53 L660.29,377.39 L662.99,379.05 L665.78,380.51 L668.64,381.77 L671.56,382.83 L674.52,383.69 L677.51,384.34 L680.51,384.80 L683.52,385.05 L686.51,385.11 L689.48,384.98 L692.41,384.66 L695.29,384.16 L698.12,383.49 L700.89,382.65 L703.58,381.64 L706.18,380.47 L708.70,379.16 L711.11,377.70 L713.43,376.11 L715.63,374.39 L717.71,372.55 L719.67,370.60 L721.51,368.54 L723.21,366.39 L724.78,364.14 L726.21,361.81 L727.50,359.41 Z" fill="#FFD479" stroke="#FFD479" stroke-width="3"/>
  <path d="M644.17,318.37 L645.57,315.27 L646.78,312.11 L647.81,308.88 L648.65,305.61 L649.30,302.28 L649.76,298.93 L650.02,295.55 L650.09,292.15 L649.96,288.75 L649.63,285.35 L649.11,281.97 L648.38,278.62 L647.46,275.29 L646.34,272.02 L645.02,268.80 L643.51,265.65 L641.80,262.57 L639.90,259.59 L637.80,256.71 L635.53,253.95 L633.07,251.31 L630.43,248.81 L627.63,246.46 L624.66,244.27 L621.53,242.26 L618.26,240.44 L614.85,238.82 L611.31,237.41 L607.65,236.22 L603.90,235.26 L600.06,234.56 L596.15,234.10 L592.18,233.91 L588.18,233.99 L584.16,234.34 L580.14,234.98 L576.14,235.90 L572.20,237.10 L568.31,238.59 L564.52,240.37 L560.84,242.42 L557.30,244.75 L553.92,247.34 L550.72,250.18 L547.72,253.27 L544.94,256.58 L542.41,260.09 L540.13,263.80 L538.13,267.67 L536.43,271.68 L535.02,275.82 L533.92,280.05 L533.14,284.35 L532.69,288.69 L532.55,293.05 L532.74,297.39 L533.25,301.70 L534.07,305.95 L535.20,310.11 L536.62,314.15 L538.32,318.07 L540.29,321.83 L542.52,325.42 L544.98,328.82 L547.66,332.01 L550.54,334.99 L553.59,337.73 L556.81,340.24 L560.17,342.50 L563.64,344.51 L567.22,346.27 L570.87,347.77 L574.59,349.01 L578.34,349.99 L582.13,350.72 L585.92,351.19 L589.70,351.42 L593.46,351.40 L597.18,351.15 L600.84,350.66 L604.44,349.96 L607.97,349.03 L611.40,347.90 L614.74,346.57 L617.96,345.05 L621.07,343.35 L624.06,341.48 L626.91,339.44 L629.62,337.25 L632.18,334.91 L634.59,332.44 L636.84,329.84 L638.93,327.13 L640.85,324.30 L642.60,321.38 Z" fill="#FFD479" stroke="#FFD479" stroke-width="3"/>
  <path d="M527.74,331.33 L529.20,327.26 L530.43,323.12 L531.42,318.91 L532.17,314.66 L532.68,310.37 L532.95,306.06 L532.97,301.73 L532.74,297.39 L532.27,293.07 L531.55,288.76 L530.58,284.49 L529.36,280.26 L527.89,276.09 L526.17,272.00 L524.21,267.98 L522.00,264.07 L519.54,260.27 L516.85,256.59 L513.92,253.06 L510.76,249.69 L507.37,246.49 L503.76,243.47 L499.95,240.67 L495.92,238.08 L491.71,235.73 L487.31,233.63 L482.75,231.81 L478.04,230.26 L473.18,229.02 L468.21,228.09 L463.14,227.49 L457.99,227.23 L452.79,227.31 L447.56,227.76 L442.32,228.58 L437.11,229.77 L431.95,231.33 L426.87,233.28 L421.91,235.60 L417.08,238.29 L412.44,241.35 L408.00,244.76 L403.80,248.51 L399.87,252.58 L396.23,256.95 L392.92,261.61 L389.95,266.51 L387.35,271.64 L385.14,276.96 L383.34,282.45 L381.96,288.05 L381.00,293.75 L380.48,299.50 L380.39,305.26 L380.74,311.00 L381.52,316.68 L382.71,322.27 L384.31,327.73 L386.31,333.03 L388.68,338.15 L391.40,343.04 L394.46,347.69 L397.81,352.08 L401.46,356.18 L405.35,359.99 L409.47,363.47 L413.79,366.63 L418.28,369.46 L422.91,371.95 L427.65,374.09 L432.49,375.90 L437.39,377.35 L442.33,378.47 L447.28,379.25 L452.23,379.70 L457.15,379.83 L462.02,379.64 L466.82,379.15 L471.54,378.37 L476.17,377.30 L480.67,375.96 L485.06,374.36 L489.30,372.51 L493.39,370.42 L497.32,368.11 L501.08,365.59 L504.66,362.86 L508.05,359.95 L511.25,356.86 L514.25,353.61 L517.04,350.21 L519.62,346.67 L521.98,343.00 L524.13,339.21 L526.05,335.32 Z" fill="#FFD479" stroke="#FFD479" stroke-width="3"/>
  <path d="M425.92,433.41 L426.53,428.31 L426.87,423.18 L426.91,418.03 L426.67,412.89 L426.14,407.76 L425.32,402.66 L424.21,397.59 L422.82,392.58 L421.13,387.64 L419.17,382.78 L416.91,378.02 L414.38,373.36 L411.56,368.84 L408.46,364.46 L405.09,360.23 L401.46,356.18 L397.55,352.33 L393.39,348.68 L388.98,345.26 L384.33,342.09 L379.45,339.18 L374.35,336.56 L369.04,334.23 L363.54,332.23 L357.87,330.56 L352.04,329.25 L346.08,328.31 L340.00,327.76 L333.84,327.62 L327.62,327.89 L321.36,328.59 L315.10,329.73 L308.88,331.31 L302.72,333.35 L296.66,335.84 L290.74,338.79 L285.00,342.18 L279.48,346.01 L274.20,350.27 L269.22,354.94 L264.57,360.00 L260.29,365.43 L256.40,371.19 L252.94,377.27 L249.94,383.61 L247.43,390.19 L245.42,396.95 L243.93,403.87 L242.97,410.88 L242.56,417.95 L242.69,425.02 L243.36,432.05 L244.56,439.00 L246.29,445.81 L248.51,452.45 L251.23,458.87 L254.40,465.04 L258.00,470.91 L262.01,476.47 L266.38,481.67 L271.09,486.51 L276.10,490.95 L281.37,494.98 L286.86,498.60 L292.55,501.78 L298.38,504.53 L304.34,506.85 L310.38,508.72 L316.47,510.17 L322.57,511.19 L328.67,511.80 L334.73,512.00 L340.73,511.80 L346.64,511.23 L352.45,510.28 L358.12,508.98 L363.64,507.35 L369.00,505.39 L374.19,503.13 L379.17,500.58 L383.96,497.76 L388.52,494.68 L392.86,491.37 L396.97,487.83 L400.83,484.08 L404.44,480.14 L407.80,476.03 L410.90,471.75 L413.74,467.32 L416.31,462.77 L418.60,458.09 L420.62,453.31 L422.37,448.44 L423.83,443.49 L425.02,438.48 Z" fill="#FFD479" stroke="#FFD479" stroke-width="3"/>
  <path d="M425.92,590.59 L425.02,585.52 L423.83,580.51 L422.37,575.56 L420.62,570.69 L418.60,565.91 L416.31,561.23 L413.74,556.68 L410.90,552.25 L407.80,547.97 L404.44,543.86 L400.83,539.92 L396.97,536.17 L392.86,532.63 L388.52,529.32 L383.96,526.24 L379.17,523.42 L374.19,520.87 L369.00,518.61 L363.64,516.65 L358.12,515.02 L352.45,513.72 L346.64,512.77 L340.73,512.20 L334.73,512.00 L328.67,512.20 L322.57,512.81 L316.47,513.83 L310.38,515.28 L304.34,517.15 L298.38,519.47 L292.55,522.22 L286.86,525.40 L281.37,529.02 L276.10,533.05 L271.09,537.49 L266.38,542.33 L262.01,547.53 L258.00,553.09 L254.40,558.96 L251.23,565.13 L248.51,571.55 L246.29,578.19 L244.56,585.00 L243.36,591.95 L242.69,598.98 L242.56,606.05 L242.97,613.12 L243.93,620.13 L245.42,627.05 L247.43,633.81 L249.94,640.39 L252.94,646.73 L256.40,652.81 L260.29,658.57 L264.57,664.00 L269.22,669.06 L274.20,673.73 L279.48,677.99 L285.00,681.82 L290.74,685.21 L296.66,688.16 L302.72,690.65 L308.88,692.69 L315.10,694.27 L321.36,695.41 L327.62,696.11 L333.84,696.38 L340.00,696.24 L346.08,695.69 L352.04,694.75 L357.87,693.44 L363.54,691.77 L369.04,689.77 L374.35,687.44 L379.45,684.82 L384.33,681.91 L388.98,678.74 L393.39,675.32 L397.55,671.67 L401.46,667.82 L405.09,663.77 L408.46,659.54 L411.56,655.16 L414.38,650.64 L416.91,645.98 L419.17,641.22 L421.13,636.36 L422.82,631.42 L424.21,626.41 L425.32,621.34 L426.14,616.24 L426.67,611.11 L426.91,605.97 L426.87,600.82 L426.53,595.69 Z" fill="#FFD479" stroke="#FFD479" stroke-width="3"/>
  <path d="M527.74,692.67 L526.05,688.68 L524.13,684.79 L521.98,681.00 L519.62,677.33 L517.04,673.79 L514.25,670.39 L511.25,667.14 L508.05,664.05 L504.66,661.14 L501.08,658.41 L497.32,655.89 L493.39,653.58 L489.30,651.49 L485.06,649.64 L480.67,648.04 L476.17,646.70 L471.54,645.63 L466.82,644.85 L462.02,644.36 L457.15,644.17 L452.23,644.30 L447.28,644.75 L442.33,645.53 L437.39,646.65 L432.49,648.10 L427.65,649.91 L422.91,652.05 L418.28,654.54 L413.79,657.37 L409.47,660.53 L405.35,664.01 L401.46,667.82 L397.81,671.92 L394.46,676.31 L391.40,680.96 L388.68,685.85 L386.31,690.97 L384.31,696.27 L382.71,701.73 L381.52,707.32 L380.74,713.00 L380.39,718.74 L380.48,724.50 L381.00,730.25 L381.96,735.95 L383.34,741.55 L385.14,747.04 L387.35,752.36 L389.95,757.49 L392.92,762.39 L396.23,767.05 L399.87,771.42 L403.80,775.49 L408.00,779.24 L412.44,782.65 L417.08,785.71 L421.91,788.40 L426.87,790.72 L431.95,792.67 L437.11,794.23 L442.32,795.42 L447.56,796.24 L452.79,796.69 L457.99,796.77 L463.14,796.51 L468.21,795.91 L473.18,794.98 L478.04,793.74 L482.75,792.19 L487.31,790.37 L491.71,788.27 L495.92,785.92 L499.95,783.33 L503.76,780.53 L507.37,777.51 L510.76,774.31 L513.92,770.94 L516.85,767.41 L519.54,763.73 L522.00,759.93 L524.21,756.02 L526.17,752.00 L527.89,747.91 L529.36,743.74 L530.58,739.51 L531.55,735.24 L532.27,730.93 L532.74,726.61 L532.97,722.27 L532.95,717.94 L532.68,713.63 L532.17,709.34 L531.42,705.09 L530.43,700.88 L529.20,696.74 Z" fill="#FFD479" stroke="#FFD479" stroke-width="3"/>
  <path d="M644.17,705.63 L642.60,702.62 L640.85,699.70 L638.93,696.87 L636.84,694.16 L634.59,691.56 L632.18,689.09 L629.62,686.75 L626.91,684.56 L624.06,682.52 L621.07,680.65 L617.96,678.95 L614.74,677.43 L611.40,676.10 L607.97,674.97 L604.44,674.04 L600.84,673.34 L597.18,672.85 L593.46,672.60 L589.70,672.58 L585.92,672.81 L582.13,673.28 L578.34,674.01 L574.59,674.99 L570.87,676.23 L567.22,677.73 L563.64,679.49 L560.17,681.50 L556.81,683.76 L553.59,686.27 L550.54,689.01 L547.66,691.99 L544.98,695.18 L542.52,698.58 L540.29,702.17 L538.32,705.93 L536.62,709.85 L535.20,713.89 L534.07,718.05 L533.25,722.30 L532.74,726.61 L532.55,730.95 L532.69,735.31 L533.14,739.65 L533.92,743.95 L535.02,748.18 L536.43,752.32 L538.13,756.33 L540.13,760.20 L542.41,763.91 L544.94,767.42 L547.72,770.73 L550.72,773.82 L553.92,776.66 L557.30,779.25 L560.84,781.58 L564.52,783.63 L568.31,785.41 L572.20,786.90 L576.14,788.10 L580.14,789.02 L584.16,789.66 L588.18,790.01 L592.18,790.09 L596.15,789.90 L600.06,789.44 L603.90,788.74 L607.65,787.78 L611.31,786.59 L614.85,785.18 L618.26,783.56 L621.53,781.74 L624.66,779.73 L627.63,777.54 L630.43,775.19 L633.07,772.69 L635.53,770.05 L637.80,767.29 L639.90,764.41 L641.80,761.43 L643.51,758.35 L645.02,755.20 L646.34,751.98 L647.46,748.71 L648.38,745.38 L649.11,742.03 L649.63,738.65 L649.96,735.25 L650.09,731.85 L650.02,728.45 L649.76,725.07 L649.30,721.72 L648.65,718.39 L647.81,715.12 L646.78,711.89 L645.57,708.73 Z" fill="#FFD479" stroke="#FFD479" stroke-width="3"/>
  <path d="M728.64,667.06 L727.50,664.59 L726.21,662.19 L724.78,659.86 L723.21,657.61 L721.51,655.46 L719.67,653.40 L717.71,651.45 L715.63,649.61 L713.43,647.89 L711.11,646.30 L708.70,644.84 L706.18,643.53 L703.58,642.36 L700.89,641.35 L698.12,640.51 L695.29,639.84 L692.41,639.34 L689.48,639.02 L686.51,638.89 L683.52,638.95 L680.51,639.20 L677.51,639.66 L674.52,640.31 L671.56,641.17 L668.64,642.23 L665.78,643.49 L662.99,644.95 L660.29,646.61 L657.69,648.47 L655.20,650.51 L652.85,652.74 L650.65,655.14 L648.61,657.71 L646.74,660.42 L645.07,663.28 L643.59,666.27 L642.33,669.36 L641.29,672.56 L640.48,675.83 L639.91,679.16 L639.58,682.53 L639.50,685.93 L639.67,689.32 L640.09,692.70 L640.75,696.04 L641.66,699.32 L642.80,702.53 L644.17,705.63 L645.77,708.63 L647.57,711.49 L649.57,714.21 L651.76,716.76 L654.11,719.15 L656.62,721.35 L659.27,723.35 L662.04,725.15 L664.92,726.74 L667.88,728.12 L670.92,729.27 L674.01,730.21 L677.13,730.93 L680.28,731.42 L683.43,731.70 L686.56,731.77 L689.68,731.62 L692.75,731.27 L695.77,730.72 L698.73,729.98 L701.61,729.05 L704.40,727.95 L707.09,726.67 L709.68,725.24 L712.16,723.66 L714.52,721.94 L716.75,720.09 L718.84,718.11 L720.80,716.02 L722.61,713.83 L724.28,711.54 L725.80,709.17 L727.16,706.73 L728.37,704.22 L729.42,701.65 L730.31,699.04 L731.05,696.39 L731.62,693.70 L732.04,691.00 L732.29,688.28 L732.38,685.56 L732.32,682.84 L732.09,680.14 L731.71,677.45 L731.17,674.79 L730.48,672.17 L729.64,669.59 Z" fill="#FFD479" stroke="#FFD479" stroke-width="3"/>
  <path d="M778.60,608.81 L777.91,606.60 L777.09,604.42 L776.14,602.30 L775.07,600.23 L773.87,598.22 L772.55,596.28 L771.11,594.42 L769.56,592.65 L767.90,590.96 L766.13,589.37 L764.25,587.88 L762.29,586.50 L760.23,585.24 L758.08,584.11 L755.86,583.10 L753.57,582.23 L751.21,581.49 L748.79,580.91 L746.33,580.47 L743.82,580.20 L741.29,580.08 L738.74,580.13 L736.18,580.34 L733.62,580.73 L731.07,581.28 L728.55,582.02 L726.07,582.92 L723.64,583.99 L721.27,585.24 L718.98,586.65 L716.78,588.23 L714.68,589.97 L712.69,591.86 L710.83,593.89 L709.11,596.06 L707.53,598.36 L706.12,600.78 L704.88,603.30 L703.82,605.91 L702.95,608.60 L702.27,611.35 L701.79,614.15 L701.52,616.99 L701.45,619.84 L701.58,622.69 L701.93,625.52 L702.47,628.32 L703.22,631.08 L704.17,633.77 L705.31,636.37 L706.63,638.89 L708.12,641.30 L709.78,643.58 L711.59,645.74 L713.54,647.75 L715.63,649.61 L717.82,651.31 L720.13,652.84 L722.52,654.20 L724.99,655.39 L727.51,656.39 L730.09,657.21 L732.70,657.85 L735.33,658.31 L737.97,658.59 L740.60,658.68 L743.21,658.61 L745.80,658.36 L748.35,657.94 L750.85,657.36 L753.28,656.63 L755.65,655.75 L757.95,654.72 L760.15,653.56 L762.27,652.27 L764.29,650.85 L766.21,649.32 L768.01,647.69 L769.70,645.96 L771.28,644.13 L772.73,642.22 L774.06,640.24 L775.26,638.19 L776.33,636.08 L777.26,633.92 L778.07,631.71 L778.73,629.47 L779.27,627.19 L779.66,624.90 L779.92,622.59 L780.04,620.27 L780.02,617.95 L779.87,615.64 L779.58,613.34 L779.16,611.06 Z" fill="#FFD479" stroke="#FFD479" stroke-width="3"/>
  <path d="M801.28,544.66 L801.01,542.54 L800.62,540.44 L800.10,538.36 L799.46,536.31 L798.70,534.30 L797.82,532.34 L796.82,530.42 L795.70,528.57 L794.47,526.78 L793.13,525.06 L791.68,523.42 L790.13,521.86 L788.48,520.39 L786.74,519.02 L784.90,517.76 L782.98,516.60 L780.98,515.56 L778.91,514.65 L776.77,513.86 L774.57,513.20 L772.32,512.68 L770.02,512.30 L767.69,512.08 L765.34,512.00 L762.97,512.08 L760.60,512.31 L758.23,512.71 L755.88,513.26 L753.55,513.98 L751.27,514.86 L749.03,515.89 L746.86,517.09 L744.77,518.44 L742.76,519.94 L740.85,521.58 L739.05,523.36 L737.37,525.28 L735.83,527.31 L734.43,529.46 L733.17,531.71 L732.09,534.06 L731.16,536.48 L730.42,538.96 L729.85,541.50 L729.47,544.08 L729.27,546.68 L729.26,549.30 L729.44,551.90 L729.81,554.48 L730.36,557.03 L731.10,559.53 L732.01,561.97 L733.09,564.32 L734.34,566.59 L735.74,568.76 L737.28,570.81 L738.96,572.75 L740.77,574.55 L742.69,576.21 L744.71,577.72 L746.82,579.09 L749.01,580.29 L751.26,581.34 L753.57,582.23 L755.91,582.95 L758.29,583.50 L760.68,583.90 L763.08,584.13 L765.47,584.20 L767.85,584.11 L770.20,583.87 L772.51,583.48 L774.78,582.94 L776.99,582.27 L779.15,581.46 L781.23,580.51 L783.24,579.45 L785.17,578.27 L787.01,576.98 L788.75,575.58 L790.40,574.09 L791.95,572.50 L793.38,570.83 L794.71,569.09 L795.93,567.27 L797.03,565.40 L798.01,563.46 L798.87,561.48 L799.61,559.45 L800.22,557.39 L800.71,555.30 L801.08,553.19 L801.32,551.07 L801.43,548.93 L801.42,546.79 Z" fill="#FFD479" stroke="#FFD479" stroke-width="3"/>
</svg>